<?xml version="1.0" encoding="UTF-8"?>
<!DOCTYPE svg PUBLIC "-//W3C//DTD SVG 1.1//EN" "http://www.w3.org/Graphics/SVG/1.1/DTD/svg11.dtd">
<svg xmlns="http://www.w3.org/2000/svg" version="1.1" width="242px" height="281px" style="shape-rendering:geometricPrecision; text-rendering:geometricPrecision; image-rendering:optimizeQuality; fill-rule:evenodd; clip-rule:evenodd" xmlns:xlink="http://www.w3.org/1999/xlink">
<g><path style="opacity:1" fill="#d42f2c" d="M 119.5,-0.5 C 120.5,-0.5 121.5,-0.5 122.5,-0.5C 127.772,7.04612 131.105,15.3795 132.5,24.5C 131.5,25.1667 130.5,25.8333 129.5,26.5C 123.5,26.5 117.5,26.5 111.5,26.5C 110.032,25.2209 109.365,23.5542 109.5,21.5C 111.107,13.3303 114.44,5.99699 119.5,-0.5 Z"/></g>
<g><path style="opacity:0.635" fill="#833f1e" d="M 109.5,21.5 C 109.365,23.5542 110.032,25.2209 111.5,26.5C 109.833,26.5 108.167,26.5 106.5,26.5C 107.767,24.9611 108.767,23.2944 109.5,21.5 Z"/></g>
<g><path style="opacity:0.616" fill="#6b411c" d="M 132.5,24.5 C 133.5,24.8333 134.167,25.5 134.5,26.5C 132.833,26.5 131.167,26.5 129.5,26.5C 130.5,25.8333 131.5,25.1667 132.5,24.5 Z"/></g>
<g><path style="opacity:1" fill="#eba43c" d="M 106.5,26.5 C 108.167,26.5 109.833,26.5 111.5,26.5C 117.5,26.5 123.5,26.5 129.5,26.5C 131.167,26.5 132.833,26.5 134.5,26.5C 136.727,27.4006 137.727,29.0672 137.5,31.5C 126.161,34.1282 114.827,34.1282 103.5,31.5C 103.75,29.326 104.75,27.6594 106.5,26.5 Z"/></g>
<g><path style="opacity:1" fill="#ca352a" d="M 103.5,31.5 C 114.827,34.1282 126.161,34.1282 137.5,31.5C 139.876,32.2061 141.21,33.8727 141.5,36.5C 134.601,38.1459 127.601,39.1459 120.5,39.5C 113.399,39.1459 106.399,38.1459 99.5,36.5C 100.145,34.1737 101.478,32.507 103.5,31.5 Z"/></g>
<g><path style="opacity:1" fill="#f5ab3e" d="M 99.5,36.5 C 106.399,38.1459 113.399,39.1459 120.5,39.5C 127.601,39.1459 134.601,38.1459 141.5,36.5C 142.5,36.8333 143.167,37.5 143.5,38.5C 143.5,40.8333 143.5,43.1667 143.5,45.5C 128.172,50.7935 112.839,50.7935 97.5,45.5C 95.877,41.944 96.5437,38.944 99.5,36.5 Z"/></g>
<g><path style="opacity:1" fill="#d8342d" d="M 143.5,38.5 C 143.521,42.9741 145.355,46.6407 149,49.5C 150.009,51.0249 150.509,52.6916 150.5,54.5C 130.4,66.4898 110.4,66.4898 90.5,54.5C 91.1786,50.1124 93.512,47.1124 97.5,45.5C 112.839,50.7935 128.172,50.7935 143.5,45.5C 143.5,43.1667 143.5,40.8333 143.5,38.5 Z"/></g>
<g><path style="opacity:1" fill="#f6ac3f" d="M 90.5,54.5 C 110.4,66.4898 130.4,66.4898 150.5,54.5C 154.702,55.8633 157.869,58.5299 160,62.5C 161.631,66.6879 162.464,71.0212 162.5,75.5C 160.167,77.8333 157.833,80.1667 155.5,82.5C 151.124,84.5094 146.79,86.5094 142.5,88.5C 139.273,88.6761 136.273,89.3428 133.5,90.5C 130.061,90.2529 126.728,90.5863 123.5,91.5C 121.5,91.5 119.5,91.5 117.5,91.5C 113.785,91.577 110.119,91.2436 106.5,90.5C 104.401,89.3882 102.067,88.7215 99.5,88.5C 94.4595,86.9299 89.7929,84.5966 85.5,81.5C 81.375,79.3882 79.375,76.0549 79.5,71.5C 79.4359,63.2687 83.1026,57.602 90.5,54.5 Z"/></g>
<g><path style="opacity:1" fill="#fbf3f1" d="M 79.5,71.5 C 79.375,76.0549 81.375,79.3882 85.5,81.5C 90.9954,102.814 96.4954,124.148 102,145.5C 102.678,147.598 102.511,149.598 101.5,151.5C 101.167,151.5 100.833,151.5 100.5,151.5C 92.1332,127.398 84.1332,103.065 76.5,78.5C 76.8333,77.8333 77.1667,77.1667 77.5,76.5C 78.0241,74.6943 78.6908,73.0276 79.5,71.5 Z"/></g>
<g><path style="opacity:1" fill="#fdf5f2" d="M 162.5,75.5 C 163.167,75.8333 163.833,76.1667 164.5,76.5C 164.453,79.5682 163.953,82.5682 163,85.5C 155.858,107.093 149.024,128.759 142.5,150.5C 141.167,150.5 139.833,150.5 138.5,150.5C 144.167,127.833 149.833,105.167 155.5,82.5C 157.833,80.1667 160.167,77.8333 162.5,75.5 Z"/></g>
<g><path style="opacity:0.784" fill="#71463c" d="M 77.5,76.5 C 77.1667,77.1667 76.8333,77.8333 76.5,78.5C 75.8333,78.5 75.1667,78.5 74.5,78.5C 74.9731,77.0937 75.9731,76.427 77.5,76.5 Z"/></g>
<g><path style="opacity:1" fill="#e03932" d="M 164.5,76.5 C 168.167,79.1667 171.833,81.8333 175.5,84.5C 166.963,106.581 158.129,128.581 149,150.5C 148.623,151.942 147.79,152.942 146.5,153.5C 145.209,153.737 144.209,153.404 143.5,152.5C 143.167,151.833 142.833,151.167 142.5,150.5C 149.024,128.759 155.858,107.093 163,85.5C 163.953,82.5682 164.453,79.5682 164.5,76.5 Z"/></g>
<g><path style="opacity:1" fill="#e03831" d="M 74.5,78.5 C 75.1667,78.5 75.8333,78.5 76.5,78.5C 84.1332,103.065 92.1332,127.398 100.5,151.5C 98.7857,152.738 96.7857,153.405 94.5,153.5C 86.3992,135.39 78.5659,117.057 71,98.5C 68.9873,93.963 67.4873,89.2963 66.5,84.5C 68.8599,82.1468 71.5265,80.1468 74.5,78.5 Z"/></g>
<g><path style="opacity:1" fill="#df3831" d="M 85.5,81.5 C 89.7929,84.5966 94.4595,86.9299 99.5,88.5C 102.774,108.751 105.774,129.084 108.5,149.5C 106.228,150.319 103.894,150.985 101.5,151.5C 102.511,149.598 102.678,147.598 102,145.5C 96.4954,124.148 90.9954,102.814 85.5,81.5 Z"/></g>
<g><path style="opacity:1" fill="#e03831" d="M 155.5,82.5 C 149.833,105.167 144.167,127.833 138.5,150.5C 138.167,150.5 137.833,150.5 137.5,150.5C 135.708,150.634 134.042,150.301 132.5,149.5C 135.941,129.185 139.275,108.852 142.5,88.5C 146.79,86.5094 151.124,84.5094 155.5,82.5 Z"/></g>
<g><path style="opacity:1" fill="#2f2726" d="M 66.5,84.5 C 67.4873,89.2963 68.9873,93.963 71,98.5C 78.5659,117.057 86.3992,135.39 94.5,153.5C 93.4863,154.674 92.153,155.34 90.5,155.5C 80.0721,133.645 69.4055,111.978 58.5,90.5C 60.8599,88.1468 63.5265,86.1468 66.5,84.5 Z"/></g>
<g><path style="opacity:1" fill="#2f2626" d="M 175.5,84.5 C 178.207,86.8432 180.874,89.1765 183.5,91.5C 182.624,91.3691 181.957,91.7025 181.5,92.5C 171.5,113.167 161.5,133.833 151.5,154.5C 151.863,155.183 152.196,155.85 152.5,156.5C 150.181,156.008 148.181,155.008 146.5,153.5C 147.79,152.942 148.623,151.942 149,150.5C 158.129,128.581 166.963,106.581 175.5,84.5 Z"/></g>
<g><path style="opacity:1" fill="#312726" d="M 99.5,88.5 C 102.067,88.7215 104.401,89.3882 106.5,90.5C 109.011,109.768 111.011,129.101 112.5,148.5C 113.5,148.5 114.5,148.5 115.5,148.5C 113.393,149.468 111.059,149.802 108.5,149.5C 105.774,129.084 102.774,108.751 99.5,88.5 Z"/></g>
<g><path style="opacity:1" fill="#322827" d="M 142.5,88.5 C 139.275,108.852 135.941,129.185 132.5,149.5C 129.941,149.802 127.607,149.468 125.5,148.5C 126.5,148.5 127.5,148.5 128.5,148.5C 130.427,130.491 132.427,112.491 134.5,94.5C 134.489,92.9549 134.156,91.6216 133.5,90.5C 136.273,89.3428 139.273,88.6761 142.5,88.5 Z"/></g>
<g><path style="opacity:1" fill="#e23430" d="M 106.5,90.5 C 110.119,91.2436 113.785,91.577 117.5,91.5C 117.726,110.502 118.059,129.502 118.5,148.5C 117.5,148.5 116.5,148.5 115.5,148.5C 114.5,148.5 113.5,148.5 112.5,148.5C 111.011,129.101 109.011,109.768 106.5,90.5 Z"/></g>
<g><path style="opacity:1" fill="#e33e35" d="M 133.5,90.5 C 134.156,91.6216 134.489,92.9549 134.5,94.5C 132.427,112.491 130.427,130.491 128.5,148.5C 127.5,148.5 126.5,148.5 125.5,148.5C 124.5,148.5 123.5,148.5 122.5,148.5C 123.015,129.504 123.348,110.504 123.5,91.5C 126.728,90.5863 130.061,90.2529 133.5,90.5 Z"/></g>
<g><path style="opacity:1" fill="#de3730" d="M 58.5,90.5 C 69.4055,111.978 80.0721,133.645 90.5,155.5C 88.5368,156.82 86.5368,158.154 84.5,159.5C 84.2447,156.984 83.4114,154.65 82,152.5C 71.6431,134.435 60.8097,116.769 49.5,99.5C 52.1667,96.1667 55.1667,93.1667 58.5,90.5 Z"/></g>
<g><path style="opacity:1" fill="#fef5f3" d="M 117.5,91.5 C 119.5,91.5 121.5,91.5 123.5,91.5C 123.348,110.504 123.015,129.504 122.5,148.5C 121.167,148.5 119.833,148.5 118.5,148.5C 118.059,129.502 117.726,110.502 117.5,91.5 Z"/></g>
<g><path style="opacity:1" fill="#e03731" d="M 183.5,91.5 C 186.167,93.8333 188.833,96.1667 191.5,98.5C 180.07,118.367 168.404,138.034 156.5,157.5C 155.833,157.5 155.167,157.5 154.5,157.5C 153.508,157.672 152.842,157.338 152.5,156.5C 152.196,155.85 151.863,155.183 151.5,154.5C 161.5,133.833 171.5,113.167 181.5,92.5C 181.957,91.7025 182.624,91.3691 183.5,91.5 Z"/></g>
<g><path style="opacity:1" fill="#fcf5f2" d="M 49.5,99.5 C 60.8097,116.769 71.6431,134.435 82,152.5C 83.4114,154.65 84.2447,156.984 84.5,159.5C 83.8333,159.833 83.1667,160.167 82.5,160.5C 69.4059,141.974 57.0726,122.974 45.5,103.5C 46.5,101.833 47.8333,100.5 49.5,99.5 Z"/></g>
<g><path style="opacity:1" fill="#fbf2ef" d="M 191.5,98.5 C 193.89,99.8908 195.557,101.891 196.5,104.5C 184.315,123.55 171.649,142.217 158.5,160.5C 157.833,160.5 157.5,160.167 157.5,159.5C 157.167,158.833 156.833,158.167 156.5,157.5C 168.404,138.034 180.07,118.367 191.5,98.5 Z"/></g>
<g><path style="opacity:1" fill="#de3931" d="M 45.5,103.5 C 57.0726,122.974 69.4059,141.974 82.5,160.5C 81.205,161.488 79.8717,162.488 78.5,163.5C 76.9826,163.489 75.8159,162.823 75,161.5C 61.8769,145.556 49.3769,129.223 37.5,112.5C 39.4528,108.88 42.1195,105.88 45.5,103.5 Z"/></g>
<g><path style="opacity:1" fill="#de3730" d="M 196.5,104.5 C 199.573,106.569 201.906,109.236 203.5,112.5C 203.046,115.14 201.879,117.473 200,119.5C 189.426,132.318 179.093,145.318 169,158.5C 167.25,160.424 165.417,162.091 163.5,163.5C 161.566,162.89 159.899,161.89 158.5,160.5C 171.649,142.217 184.315,123.55 196.5,104.5 Z"/></g>
<g><path style="opacity:1" fill="#2f2726" d="M 37.5,112.5 C 49.3769,129.223 61.8769,145.556 75,161.5C 75.8159,162.823 76.9826,163.489 78.5,163.5C 77.0552,165.063 75.3885,166.396 73.5,167.5C 72.9278,165.745 72.0945,164.078 71,162.5C 57.9673,147.971 44.8007,133.637 31.5,119.5C 33.2733,116.94 35.2733,114.607 37.5,112.5 Z"/></g>
<g><path style="opacity:1" fill="#2f2726" d="M 203.5,112.5 C 206.2,114.234 208.2,116.568 209.5,119.5C 195.134,135.198 181.134,151.198 167.5,167.5C 165.833,166.5 164.5,165.167 163.5,163.5C 165.417,162.091 167.25,160.424 169,158.5C 179.093,145.318 189.426,132.318 200,119.5C 201.879,117.473 203.046,115.14 203.5,112.5 Z"/></g>
<g><path style="opacity:1" fill="#df3730" d="M 31.5,119.5 C 44.8007,133.637 57.9673,147.971 71,162.5C 72.0945,164.078 72.9278,165.745 73.5,167.5C 72.8333,168.833 71.8333,169.833 70.5,170.5C 56.0361,157.205 41.7028,143.705 27.5,130C 26.552,129.517 25.552,129.351 24.5,129.5C 25.604,127.611 26.9373,125.945 28.5,124.5C 29.9063,124.027 30.573,123.027 30.5,121.5C 30.8333,120.833 31.1667,120.167 31.5,119.5 Z"/></g>
<g><path style="opacity:1" fill="#df3731" d="M 209.5,119.5 C 211.218,121.223 212.551,123.223 213.5,125.5C 213.427,127.027 214.094,128.027 215.5,128.5C 215.5,128.833 215.5,129.167 215.5,129.5C 200.504,143.163 185.837,157.163 171.5,171.5C 169.833,170.5 168.5,169.167 167.5,167.5C 181.134,151.198 195.134,135.198 209.5,119.5 Z"/></g>
<g><path style="opacity:0.471" fill="#591915" d="M 30.5,121.5 C 30.573,123.027 29.9063,124.027 28.5,124.5C 28.427,122.973 29.0937,121.973 30.5,121.5 Z"/></g>
<g><path style="opacity:0.392" fill="#511713" d="M 213.5,125.5 C 214.906,125.973 215.573,126.973 215.5,128.5C 214.094,128.027 213.427,127.027 213.5,125.5 Z"/></g>
<g><path style="opacity:1" fill="#faf0ed" d="M 24.5,129.5 C 25.552,129.351 26.552,129.517 27.5,130C 41.7028,143.705 56.0361,157.205 70.5,170.5C 70.2624,172.404 69.2624,173.738 67.5,174.5C 54.2786,162.212 40.612,150.379 26.5,139C 24.5359,137.549 23.2026,135.716 22.5,133.5C 22.7329,131.938 23.3995,130.605 24.5,129.5 Z"/></g>
<g><path style="opacity:1" fill="#fbf2ef" d="M 215.5,129.5 C 215.833,130.5 216.5,131.167 217.5,131.5C 218.401,132.29 219.068,133.29 219.5,134.5C 204.167,147.833 188.833,161.167 173.5,174.5C 172.094,174.027 171.427,173.027 171.5,171.5C 185.837,157.163 200.504,143.163 215.5,129.5 Z"/></g>
<g><path style="opacity:0.639" fill="#7e6860" d="M 215.5,128.5 C 216.906,128.973 217.573,129.973 217.5,131.5C 216.5,131.167 215.833,130.5 215.5,129.5C 215.5,129.167 215.5,128.833 215.5,128.5 Z"/></g>
<g><path style="opacity:1" fill="#de3730" d="M 22.5,133.5 C 23.2026,135.716 24.5359,137.549 26.5,139C 40.612,150.379 54.2786,162.212 67.5,174.5C 66.9744,176.23 65.9744,177.564 64.5,178.5C 49.3235,167.497 33.9901,156.664 18.5,146C 17.6634,144.989 17.33,143.822 17.5,142.5C 18.7738,139.24 20.4405,136.24 22.5,133.5 Z"/></g>
<g><path style="opacity:1" fill="#de3731" d="M 219.5,134.5 C 221.341,136.849 222.674,139.515 223.5,142.5C 223.703,144.39 223.037,145.89 221.5,147C 206.442,157.519 191.442,168.019 176.5,178.5C 175.512,177.205 174.512,175.872 173.5,174.5C 188.833,161.167 204.167,147.833 219.5,134.5 Z"/></g>
<g><path style="opacity:1" fill="#302726" d="M 17.5,142.5 C 17.33,143.822 17.6634,144.989 18.5,146C 33.9901,156.664 49.3235,167.497 64.5,178.5C 63.8897,180.434 62.8897,182.101 61.5,183.5C 61.4894,181.983 60.8228,180.816 59.5,180C 44.2784,170.227 28.945,160.727 13.5,151.5C 14.4629,148.256 15.7962,145.256 17.5,142.5 Z"/></g>
<g><path style="opacity:1" fill="#2f2726" d="M 223.5,142.5 C 225.625,145.088 226.958,148.088 227.5,151.5C 211.861,161.322 196.195,171.156 180.5,181C 179.748,181.671 179.414,182.504 179.5,183.5C 178.263,182.035 177.263,180.368 176.5,178.5C 191.442,168.019 206.442,157.519 221.5,147C 223.037,145.89 223.703,144.39 223.5,142.5 Z"/></g>
<g><path style="opacity:1" fill="#927a73" d="M 137.5,150.5 C 137.833,150.5 138.167,150.5 138.5,150.5C 139.833,150.5 141.167,150.5 142.5,150.5C 142.833,151.167 143.167,151.833 143.5,152.5C 141.214,152.405 139.214,151.738 137.5,150.5 Z"/></g>
<g><path style="opacity:1" fill="#de3730" d="M 13.5,151.5 C 28.945,160.727 44.2784,170.227 59.5,180C 60.8228,180.816 61.4894,181.983 61.5,183.5C 61.3404,185.153 60.6737,186.486 59.5,187.5C 43.3597,178.595 27.0264,169.928 10.5,161.5C 10.698,157.908 11.698,154.574 13.5,151.5 Z"/></g>
<g><path style="opacity:1" fill="#df3730" d="M 227.5,151.5 C 229.072,154.215 230.072,157.215 230.5,160.5C 230.5,160.833 230.5,161.167 230.5,161.5C 214.296,170.102 197.963,178.435 181.5,186.5C 180.599,185.71 179.932,184.71 179.5,183.5C 179.414,182.504 179.748,181.671 180.5,181C 196.195,171.156 211.861,161.322 227.5,151.5 Z"/></g>
<g><path style="opacity:0.718" fill="#5f2d24" d="M 154.5,157.5 C 155.167,157.5 155.833,157.5 156.5,157.5C 156.833,158.167 157.167,158.833 157.5,159.5C 155.973,159.573 154.973,158.906 154.5,157.5 Z"/></g>
<g><path style="opacity:1" fill="#fcf3f0" d="M 10.5,161.5 C 27.0264,169.928 43.3597,178.595 59.5,187.5C 59.4431,188.609 59.1098,189.609 58.5,190.5C 42.5661,183.242 26.5661,176.075 10.5,169C 9.61983,167.644 9.28649,166.144 9.5,164.5C 9.26269,163.209 9.59603,162.209 10.5,161.5 Z"/></g>
<g><path style="opacity:1" fill="#231f1f" d="M 114.5,161.5 C 146.962,161.136 166.462,176.803 173,208.5C 174.176,234.971 162.676,253.471 138.5,264C 109.848,271.569 88.015,262.736 73,237.5C 62.2831,209.324 69.1164,186.49 93.5,169C 100.302,165.569 107.302,163.069 114.5,161.5 Z"/></g>
<g><path style="opacity:1" fill="#fcf2ef" d="M 230.5,161.5 C 230.993,163.806 231.326,166.139 231.5,168.5C 215.161,175.671 199.161,183.338 183.5,191.5C 182.069,190.22 181.402,188.553 181.5,186.5C 197.963,178.435 214.296,170.102 230.5,161.5 Z"/></g>
<g><path style="opacity:0.784" fill="#967b72" d="M 230.5,160.5 C 232.04,162.838 232.706,165.505 232.5,168.5C 232.167,168.5 231.833,168.5 231.5,168.5C 231.326,166.139 230.993,163.806 230.5,161.5C 230.5,161.167 230.5,160.833 230.5,160.5 Z"/></g>
<g><path style="opacity:1" fill="#df3630" d="M 231.5,168.5 C 231.833,168.5 232.167,168.5 232.5,168.5C 233.473,170.948 233.806,173.615 233.5,176.5C 233.586,177.496 233.252,178.329 232.5,179C 216.574,184.8 200.574,190.3 184.5,195.5C 183.766,194.292 183.433,192.959 183.5,191.5C 199.161,183.338 215.161,175.671 231.5,168.5 Z"/></g>
<g><path style="opacity:1" fill="#db3831" d="M 9.5,164.5 C 9.28649,166.144 9.61983,167.644 10.5,169C 26.5661,176.075 42.5661,183.242 58.5,190.5C 58.2041,192.403 57.5375,194.07 56.5,195.5C 39.9485,190.427 23.6151,184.761 7.5,178.5C 7.36182,173.586 8.02849,168.919 9.5,164.5 Z"/></g>
<g><path style="opacity:1" fill="#f8ae40" d="M 112.5,177.5 C 134.338,175.205 149.171,184.205 157,204.5C 160.358,226.97 151.524,242.137 130.5,250C 108.103,254.248 92.9361,245.748 85,224.5C 80.7869,200.918 89.9536,185.251 112.5,177.5 Z"/></g>
<g><path style="opacity:1" fill="#2f2625" d="M 7.5,178.5 C 23.6151,184.761 39.9485,190.427 56.5,195.5C 56.2785,198.067 55.6118,200.401 54.5,202.5C 54.6399,200.876 53.9733,199.71 52.5,199C 37.569,194.727 22.7357,190.227 8,185.5C 7.50649,187.134 7.33982,188.801 7.5,190.5C 6.16667,186.5 6.16667,182.5 7.5,178.5 Z"/></g>
<g><path style="opacity:1" fill="#322826" d="M 233.5,176.5 C 234.833,182.167 234.833,187.833 233.5,193.5C 233.813,190.753 233.48,188.086 232.5,185.5C 218.001,190.499 203.334,194.999 188.5,199C 187.244,199.417 186.577,200.25 186.5,201.5C 185.542,199.698 184.875,197.698 184.5,195.5C 200.574,190.3 216.574,184.8 232.5,179C 233.252,178.329 233.586,177.496 233.5,176.5 Z"/></g>
<g><path style="opacity:1" fill="#de3731" d="M 54.5,202.5 C 54.8016,205.059 54.4682,207.393 53.5,209.5C 53.5,209.167 53.5,208.833 53.5,208.5C 53.5,207.167 53.5,205.833 53.5,204.5C 38.5014,201.834 23.5014,199.167 8.5,196.5C 8.5,197.5 8.5,198.5 8.5,199.5C 7.52333,196.713 7.19,193.713 7.5,190.5C 7.33982,188.801 7.50649,187.134 8,185.5C 22.7357,190.227 37.569,194.727 52.5,199C 53.9733,199.71 54.6399,200.876 54.5,202.5 Z"/></g>
<g><path style="opacity:1" fill="#df3731" d="M 233.5,193.5 C 233.5,194.167 233.5,194.833 233.5,195.5C 232.508,195.328 231.842,195.662 231.5,196.5C 216.911,199.551 202.244,202.218 187.5,204.5C 187.5,205.5 187.5,206.5 187.5,207.5C 186.539,205.735 186.205,203.735 186.5,201.5C 186.577,200.25 187.244,199.417 188.5,199C 203.334,194.999 218.001,190.499 232.5,185.5C 233.48,188.086 233.813,190.753 233.5,193.5 Z"/></g>
<g><path style="opacity:1" fill="#e4362f" d="M 114.5,190.5 C 131.772,189.289 141.772,197.122 144.5,214C 143.155,229.012 134.989,236.846 120,237.5C 105.34,236.339 97.5064,228.339 96.5,213.5C 98.0442,202.295 104.044,194.628 114.5,190.5 Z"/></g>
<g><path style="opacity:1" fill="#faece8" d="M 53.5,208.5 C 39.1057,206.909 24.7724,204.909 10.5,202.5C 9.70245,202.957 9.36912,203.624 9.5,204.5C 8.54885,203.081 8.21552,201.415 8.5,199.5C 8.5,198.5 8.5,197.5 8.5,196.5C 23.5014,199.167 38.5014,201.834 53.5,204.5C 53.5,205.833 53.5,207.167 53.5,208.5 Z"/></g>
<g><path style="opacity:1" fill="#fef6f4" d="M 231.5,196.5 C 232.434,197.568 232.768,198.901 232.5,200.5C 232.5,201.167 232.5,201.833 232.5,202.5C 217.504,204.499 202.504,206.499 187.5,208.5C 187.5,208.167 187.5,207.833 187.5,207.5C 187.5,206.5 187.5,205.5 187.5,204.5C 202.244,202.218 216.911,199.551 231.5,196.5 Z"/></g>
<g><path style="opacity:0.439" fill="#6d4b41" d="M 231.5,196.5 C 231.842,195.662 232.508,195.328 233.5,195.5C 233.784,197.415 233.451,199.081 232.5,200.5C 232.768,198.901 232.434,197.568 231.5,196.5 Z"/></g>
<g><path style="opacity:1" fill="#de342f" d="M 53.5,208.5 C 53.5,208.833 53.5,209.167 53.5,209.5C 53.5,211.167 53.5,212.833 53.5,214.5C 53.1667,214.5 52.8333,214.5 52.5,214.5C 38.8802,213.206 25.2136,212.54 11.5,212.5C 10.2264,210.007 9.55975,207.341 9.5,204.5C 9.36912,203.624 9.70245,202.957 10.5,202.5C 24.7724,204.909 39.1057,206.909 53.5,208.5 Z"/></g>
<g><path style="opacity:1" fill="#faad3f" d="M 116.5,201.5 C 128.155,200.712 133.655,206.045 133,217.5C 129.757,225.538 123.923,228.371 115.5,226C 108.93,222.345 106.763,216.845 109,209.5C 111.028,206.308 113.528,203.641 116.5,201.5 Z"/></g>
<g><path style="opacity:1" fill="#de3c33" d="M 232.5,202.5 C 232.142,205.267 231.475,207.933 230.5,210.5C 216.977,212.656 203.31,213.989 189.5,214.5C 188.833,212.833 188.167,211.167 187.5,209.5C 187.5,209.167 187.5,208.833 187.5,208.5C 202.504,206.499 217.504,204.499 232.5,202.5 Z"/></g>
<g><path style="opacity:1" fill="#302625" d="M 11.5,212.5 C 25.2136,212.54 38.8802,213.206 52.5,214.5C 52.5,215.5 52.5,216.5 52.5,217.5C 39.5,217.5 26.5,217.5 13.5,217.5C 12.4625,216.07 11.7959,214.403 11.5,212.5 Z"/></g>
<g><path style="opacity:1" fill="#2c2424" d="M 230.5,210.5 C 229.871,213.397 228.871,216.064 227.5,218.5C 214.66,217.833 201.66,217.167 188.5,216.5C 188.863,215.817 189.196,215.15 189.5,214.5C 203.31,213.989 216.977,212.656 230.5,210.5 Z"/></g>
<g><path style="opacity:1" fill="#694f47" d="M 52.5,214.5 C 52.8333,214.5 53.1667,214.5 53.5,214.5C 53.5,215.833 53.5,217.167 53.5,218.5C 40.1237,217.852 27.1237,218.519 14.5,220.5C 13.596,219.791 13.2627,218.791 13.5,217.5C 26.5,217.5 39.5,217.5 52.5,217.5C 52.5,216.5 52.5,215.5 52.5,214.5 Z"/></g>
<g><path style="opacity:1" fill="#714e44" d="M 187.5,209.5 C 188.167,211.167 188.833,212.833 189.5,214.5C 189.196,215.15 188.863,215.817 188.5,216.5C 201.66,217.167 214.66,217.833 227.5,218.5C 227.672,219.492 227.338,220.158 226.5,220.5C 213.876,218.519 200.876,217.852 187.5,218.5C 187.5,215.5 187.5,212.5 187.5,209.5 Z"/></g>
<g><path style="opacity:1" fill="#dc332e" d="M 53.5,218.5 C 54.1495,220.435 54.4828,222.435 54.5,224.5C 42.1361,224.656 29.8028,225.323 17.5,226.5C 15.9925,224.819 14.9925,222.819 14.5,220.5C 27.1237,218.519 40.1237,217.852 53.5,218.5 Z"/></g>
<g><path style="opacity:1" fill="#e03932" d="M 187.5,218.5 C 200.876,217.852 213.876,218.519 226.5,220.5C 226.598,222.553 225.931,224.22 224.5,225.5C 221.92,226.116 219.253,226.449 216.5,226.5C 206.836,225.731 197.169,225.064 187.5,224.5C 187.5,224.167 187.5,223.833 187.5,223.5C 187.5,221.833 187.5,220.167 187.5,218.5 Z"/></g>
<g><path style="opacity:1" fill="#f8ebe7" d="M 54.5,224.5 C 54.5,225.5 54.5,226.5 54.5,227.5C 42.9235,229.558 31.2568,230.891 19.5,231.5C 18.0687,230.22 17.4021,228.553 17.5,226.5C 29.8028,225.323 42.1361,224.656 54.5,224.5 Z"/></g>
<g><path style="opacity:1" fill="#f8f0ed" d="M 187.5,224.5 C 197.169,225.064 206.836,225.731 216.5,226.5C 219.253,226.449 221.92,226.116 224.5,225.5C 224.008,227.819 223.008,229.819 221.5,231.5C 211.19,230.436 200.856,229.436 190.5,228.5C 189.791,227.596 188.791,227.263 187.5,227.5C 187.5,226.5 187.5,225.5 187.5,224.5 Z"/></g>
<g><path style="opacity:1" fill="#ba6f5c" d="M 187.5,223.5 C 187.5,223.833 187.5,224.167 187.5,224.5C 187.5,225.5 187.5,226.5 187.5,227.5C 188.791,227.263 189.791,227.596 190.5,228.5C 189.167,228.5 187.833,228.5 186.5,228.5C 186.216,226.585 186.549,224.919 187.5,223.5 Z"/></g>
<g><path style="opacity:1" fill="#dc3931" d="M 54.5,227.5 C 55.3007,229.042 55.634,230.708 55.5,232.5C 45.3669,235.196 35.0335,237.53 24.5,239.5C 22.347,237.206 20.6803,234.54 19.5,231.5C 31.2568,230.891 42.9235,229.558 54.5,227.5 Z"/></g>
<g><path style="opacity:1" fill="#dc3730" d="M 186.5,228.5 C 187.833,228.5 189.167,228.5 190.5,228.5C 200.856,229.436 211.19,230.436 221.5,231.5C 220.617,234.704 218.95,237.371 216.5,239.5C 206.526,237.372 196.526,235.372 186.5,233.5C 186.5,232.167 186.5,230.833 186.5,229.5C 186.5,229.167 186.5,228.833 186.5,228.5 Z"/></g>
<g><path style="opacity:1" fill="#352928" d="M 55.5,232.5 C 56.5375,233.93 57.2041,235.597 57.5,237.5C 48.13,239.342 38.7967,241.509 29.5,244C 28.944,244.383 28.6107,244.883 28.5,245.5C 26.6736,243.853 25.3403,241.853 24.5,239.5C 35.0335,237.53 45.3669,235.196 55.5,232.5 Z"/></g>
<g><path style="opacity:1" fill="#382b29" d="M 186.5,229.5 C 186.5,230.833 186.5,232.167 186.5,233.5C 196.526,235.372 206.526,237.372 216.5,239.5C 216.155,242.198 214.822,244.198 212.5,245.5C 203.357,242.208 194.023,239.208 184.5,236.5C 184.721,233.933 185.388,231.599 186.5,229.5 Z"/></g>
<g><path style="opacity:1" fill="#d8362f" d="M 57.5,237.5 C 58.2341,238.708 58.5674,240.041 58.5,241.5C 50.8831,244.766 43.0498,247.766 35,250.5C 33.9701,250.836 33.4701,251.503 33.5,252.5C 31.4525,250.45 29.7859,248.117 28.5,245.5C 28.6107,244.883 28.944,244.383 29.5,244C 38.7967,241.509 48.13,239.342 57.5,237.5 Z"/></g>
<g><path style="opacity:1" fill="#d83931" d="M 184.5,236.5 C 194.023,239.208 203.357,242.208 212.5,245.5C 211.567,248.37 209.9,250.704 207.5,252.5C 206.942,251.21 205.942,250.377 204.5,250C 197.667,247.5 190.833,245 184,242.5C 183.098,242.743 182.265,243.077 181.5,243.5C 182.264,240.982 183.264,238.649 184.5,236.5 Z"/></g>
<g><path style="opacity:1" fill="#f7ebe7" d="M 58.5,241.5 C 59.6737,242.514 60.3404,243.847 60.5,245.5C 52.054,248.557 43.7206,251.89 35.5,255.5C 34.8333,254.5 34.1667,253.5 33.5,252.5C 33.4701,251.503 33.9701,250.836 35,250.5C 43.0498,247.766 50.8831,244.766 58.5,241.5 Z"/></g>
<g><path style="opacity:1" fill="#fdf3f0" d="M 207.5,252.5 C 207.167,253.167 206.833,253.833 206.5,254.5C 205.5,254.5 204.5,254.5 203.5,254.5C 196.405,251.788 189.405,248.788 182.5,245.5C 181.702,245.043 181.369,244.376 181.5,243.5C 182.265,243.077 183.098,242.743 184,242.5C 190.833,245 197.667,247.5 204.5,250C 205.942,250.377 206.942,251.21 207.5,252.5 Z"/></g>
<g><path style="opacity:1" fill="#d73830" d="M 60.5,245.5 C 61.6737,246.514 62.3404,247.847 62.5,249.5C 55.6981,253.738 48.6981,257.738 41.5,261.5C 39.1667,259.833 37.1667,257.833 35.5,255.5C 43.7206,251.89 52.054,248.557 60.5,245.5 Z"/></g>
<g><path style="opacity:1" fill="#d8362f" d="M 181.5,243.5 C 181.369,244.376 181.702,245.043 182.5,245.5C 189.405,248.788 196.405,251.788 203.5,254.5C 203.833,255.167 204.167,255.833 204.5,256.5C 203.5,258.167 202.167,259.5 200.5,260.5C 192.581,257.874 185.248,254.207 178.5,249.5C 179.508,247.456 180.508,245.456 181.5,243.5 Z"/></g>
<g><path style="opacity:1" fill="#352a29" d="M 178.5,249.5 C 185.248,254.207 192.581,257.874 200.5,260.5C 199.167,262.5 197.5,264.167 195.5,265.5C 189.505,260.497 182.838,256.497 175.5,253.5C 176.512,252.128 177.512,250.795 178.5,249.5 Z"/></g>
<g><path style="opacity:1" fill="#322928" d="M 62.5,249.5 C 63.9744,250.436 64.9744,251.77 65.5,253.5C 58.4938,257 51.8272,261 45.5,265.5C 43.8333,264.5 42.5,263.167 41.5,261.5C 48.6981,257.738 55.6981,253.738 62.5,249.5 Z"/></g>
<g><path style="opacity:1" fill="#d93730" d="M 175.5,253.5 C 182.838,256.497 189.505,260.497 195.5,265.5C 194.5,267.167 193.167,268.5 191.5,269.5C 190.5,269.5 189.5,269.5 188.5,269.5C 183.563,265.025 178.23,261.025 172.5,257.5C 173.5,256.167 174.5,254.833 175.5,253.5 Z"/></g>
<g><path style="opacity:1" fill="#d83830" d="M 65.5,253.5 C 66.4884,254.795 67.4884,256.128 68.5,257.5C 62.86,261.147 57.5266,265.147 52.5,269.5C 51.5,269.5 50.5,269.5 49.5,269.5C 47.8333,268.5 46.5,267.167 45.5,265.5C 51.8272,261 58.4938,257 65.5,253.5 Z"/></g>
<g><path style="opacity:0.922" fill="#856960" d="M 203.5,254.5 C 204.5,254.5 205.5,254.5 206.5,254.5C 206.167,255.5 205.5,256.167 204.5,256.5C 204.167,255.833 203.833,255.167 203.5,254.5 Z"/></g>
<g><path style="opacity:1" fill="#f7ece8" d="M 68.5,257.5 C 69.9063,257.973 70.573,258.973 70.5,260.5C 66.5181,263.152 62.8514,266.152 59.5,269.5C 57.1667,269.5 54.8333,269.5 52.5,269.5C 57.5266,265.147 62.86,261.147 68.5,257.5 Z"/></g>
<g><path style="opacity:1" fill="#faeeea" d="M 172.5,257.5 C 178.23,261.025 183.563,265.025 188.5,269.5C 186.167,269.5 183.833,269.5 181.5,269.5C 177.812,266.479 174.479,263.146 171.5,259.5C 171.328,258.508 171.662,257.842 172.5,257.5 Z"/></g>
<g><path style="opacity:1" fill="#d93931" d="M 171.5,259.5 C 174.479,263.146 177.812,266.479 181.5,269.5C 175.216,270.977 170.549,268.977 167.5,263.5C 168.5,261.833 169.833,260.5 171.5,259.5 Z"/></g>
<g><path style="opacity:1" fill="#dc3a32" d="M 70.5,260.5 C 71.8333,261.167 72.8333,262.167 73.5,263.5C 72.7974,265.716 71.4641,267.549 69.5,269C 66.1832,269.498 62.8499,269.665 59.5,269.5C 62.8514,266.152 66.5181,263.152 70.5,260.5 Z"/></g>
<g><path style="opacity:1" fill="#3f2623" d="M 167.5,263.5 C 170.549,268.977 175.216,270.977 181.5,269.5C 183.833,269.5 186.167,269.5 188.5,269.5C 189.5,269.5 190.5,269.5 191.5,269.5C 181.008,270.659 170.341,270.825 159.5,270C 160.044,269.283 160.711,268.783 161.5,268.5C 163.46,266.844 165.46,265.177 167.5,263.5 Z"/></g>
<g><path style="opacity:1" fill="#332120" d="M 73.5,263.5 C 75.2303,264.026 76.5637,265.026 77.5,266.5C 76.3734,267.122 75.3734,267.955 74.5,269C 76.3869,269.78 78.0536,269.613 79.5,268.5C 80.2891,268.783 80.9558,269.283 81.5,270C 70.6586,270.825 59.992,270.659 49.5,269.5C 50.5,269.5 51.5,269.5 52.5,269.5C 54.8333,269.5 57.1667,269.5 59.5,269.5C 62.8499,269.665 66.1832,269.498 69.5,269C 71.4641,267.549 72.7974,265.716 73.5,263.5 Z"/></g>
<g><path style="opacity:1" fill="#b7382e" d="M 77.5,266.5 C 78.5,266.833 79.1667,267.5 79.5,268.5C 78.0536,269.613 76.3869,269.78 74.5,269C 75.3734,267.955 76.3734,267.122 77.5,266.5 Z"/></g>
<g><path style="opacity:1" fill="#df322e" d="M 161.5,268.5 C 163.372,267.205 165.038,267.372 166.5,269C 164.613,269.78 162.946,269.613 161.5,268.5 Z"/></g>
</svg>
